<?xml version="1.0" encoding="UTF-8" standalone="no"?>
<svg
   xmlns:dc="http://purl.org/dc/elements/1.1/"
   xmlns:cc="http://creativecommons.org/ns#"
   xmlns:rdf="http://www.w3.org/1999/02/22-rdf-syntax-ns#"
   xmlns:svg="http://www.w3.org/2000/svg"
   xmlns="http://www.w3.org/2000/svg"
   xmlns:sodipodi="http://sodipodi.sourceforge.net/DTD/sodipodi-0.dtd"
   xmlns:inkscape="http://www.inkscape.org/namespaces/inkscape"
   id="Layer_1"
   style="enable-background:new 0 0 512 512;"
   version="1.1"
   viewBox="0 0 512 512"
   xml:space="preserve"
   inkscape:version="0.48.4 r9939"
   width="100%"
   height="100%"
   sodipodi:docname="1453164652_Back_Previous_Move_Arrow_Direction.svg"><metadata
     id="metadata3908"><rdf:RDF><cc:Work
         rdf:about=""><dc:format>image/svg+xml</dc:format><dc:type
           rdf:resource="http://purl.org/dc/dcmitype/StillImage" /><dc:title></dc:title></cc:Work></rdf:RDF></metadata><defs
     id="defs3906" /><sodipodi:namedview
     pagecolor="#ffffff"
     bordercolor="#666666"
     borderopacity="1"
     objecttolerance="10"
     gridtolerance="10"
     guidetolerance="10"
     inkscape:pageopacity="0"
     inkscape:pageshadow="2"
     inkscape:window-width="1920"
     inkscape:window-height="1005"
     id="namedview3904"
     showgrid="false"
     inkscape:zoom="0.4609375"
     inkscape:cx="-228.88136"
     inkscape:cy="256"
     inkscape:window-x="-2"
     inkscape:window-y="-3"
     inkscape:window-maximized="1"
     inkscape:current-layer="Layer_1" /><style
     type="text/css"
     id="style3901">
	.st0{fill:#3A3A3A;}
</style><path
     class="st0"
     d="m 68.6,344.07505 0.5,0.5 c 26.7,26 55.4,50 85.8,71.7 l 11.9,8.5 c 9.5,7.8 23.8,1 23.8,-11.3 v -36.5 c 0.4,0 0.8,-0.1 1.3,-0.1 0.8,-0.1 1.5,-0.1 2.7,-0.3 2.2,-0.3 4.7,-0.6 7.3,-0.9 2.6,-0.3 5.5,-0.7 8.4,-1.1 2.8,-0.5 5.7,-1 8.8,-1.6 1.5,-0.3 3.1,-0.6 4.8,-0.9 1.6,-0.3 3.3,-0.7 5,-1.1 3.4,-0.8 6.9,-1.6 10.6,-2.5 3.6,-1 7.4,-2.1 11.3,-3.3 3.9,-1.2 7.9,-2.6 12,-4 16.4,-5.9 34.3,-13.9 52.4,-24.9 18.1,-10.9 36.3,-25 53.3,-41.8 8.4,-8.5 16.7,-17.6 24.2,-27.5 3.9,-4.9 7.4,-10.1 11.1,-15.3 1.8,-2.6 3.4,-5.4 5.1,-8 l 2.6,-4.1 2.4,-4.2 c 12.9,-22.3 22.9,-47 29.1,-72.9 3.2,-12.9 5.2,-26.2 6.5,-39.5 0.3,-3.4 0.6,-6.7 0.9,-10.1 0.1,-1.1 0.2,-2.1 0.2,-3.2 0,-14.300004 -11.6,-25.800004 -25.8,-25.800004 -12,0 -22,8.1 -24.9,19.200004 l 0,0 c 0,0.2 -0.1,0.5 -0.2,0.8 -0.1,0.3 -0.1,0.6 -0.2,0.8 -0.8,3.1 -2.3,9.1 -2.6,10.6 -2.4,10.5 -5.3,20.7 -9.1,30.5 -7.5,19.6 -17.6,37.6 -29.6,53.2 l -2.2,2.9 -2.3,2.8 c -1.6,1.9 -3,3.8 -4.6,5.6 -3.3,3.5 -6.4,7.1 -9.8,10.3 -6.5,6.7 -13.5,12.6 -20.5,18 -14.1,10.7 -28.4,19.1 -42.3,25.1 -13.9,6.1 -27.1,10.1 -38.9,12.6 -3,0.6 -5.8,1.2 -8.6,1.7 -2.8,0.4 -5.5,0.8 -8,1.2 -2.6,0.3 -5.1,0.5 -7.4,0.8 -1.2,0.1 -2.3,0.3 -3.5,0.3 -1.1,0.1 -2.2,0.1 -3.3,0.2 -2.1,0.1 -4.2,0.2 -6.1,0.3 -1.8,0 -3.3,0 -4.8,0 -1.5,0 -2.8,0 -4,0 -0.3,0 -0.7,0 -1.1,0 v -36.6 c 0,-12.3 -14.3,-19 -23.8,-11.3 l -11.5,8.2 c -30.7,21.9 -59.7,46.1 -86.7,72.5 -9.8,8 -9.8,22.6 -0.2,30.5 z"
     id="XMLID_374_"
     style="fill:#aabbcc;fill-opacity:1"
     inkscape:connector-curvature="0" /></svg>