<svg id="Layer_1" data-name="Layer 1" xmlns="http://www.w3.org/2000/svg" viewBox="0 0 250.3 88.07"><defs><style>.cls-1{fill:#464547;}.cls-2{fill:#39c2d7;}</style></defs><title>EPAM_LOGO_Full_Color_RGB</title><path class="cls-1" d="M318.09,292.78l0,16.17q0,6.15,6.15,6.15h1.79q6.15,0,6.15-6.15V301h9.48v7.56c0,10.38-5.25,15.64-15.64,15.64H324c-10.38,0-15.64-5.25-15.64-14.42V270.3c0-11.6,5.25-16.85,15.64-16.85h2.05c10.38,0,15.64,5.26,15.64,15.64l0,23.69Zm0-9.38H332V268.7q0-6.15-6.15-6.15h-1.54q-6.15,0-6.15,6.15Z" transform="translate(-270.87 -253.45)"/><path class="cls-1" d="M348,254.22h9.74v4.49a16.3,16.3,0,0,1,11.92-5.26c8.33,0,12.43,5.51,12.43,13.71v43.32c0,8.2-4.1,13.71-12.43,13.71a16.7,16.7,0,0,1-11.92-5v22.33H348Zm9.74,57.16a13.77,13.77,0,0,0,9,3.59c3.59,0,5.64-1.67,5.64-5.64v-41c0-4-2.05-5.64-5.64-5.64a13.77,13.77,0,0,0-9,3.59Z" transform="translate(-270.87 -253.45)"/><path class="cls-1" d="M388,299.33c0-8.59,2.82-12,10.25-14.61l13.07-4.49V268.7c0-4.1-2.05-6.28-6.15-6.28h-1.59c-4.1,0-6.15,2.18-6.15,6.28v9.8H388v-9.42c0-10.38,5.25-15.64,15.64-15.64h1.84c10.38,0,15.64,5.26,15.64,15.64v54.34h-9.74v-4.36a16.46,16.46,0,0,1-11.92,5.13c-7.82,0-11.41-4.49-11.41-12.18Zm23.33,12.43V288.94l-8.84,3.35c-3.59,1.41-4.74,3.2-4.74,7.18V310c0,3.33,1.67,5,4.74,5S408.12,313.94,411.33,311.76Z" transform="translate(-270.87 -253.45)"/><path class="cls-1" d="M460.46,323.43h-9.74V267.68c0-3.46-1.67-5-4.61-5-2.69,0-5.51,1-9,3.46v57.29H427.4V254.22h9.74v4.49c2.82-2.69,6.54-5.26,11.92-5.26,5,0,8.33,2.05,10.12,5.64,3.46-2.95,7.56-5.64,13.2-5.64,7.56,0,11.41,4.61,11.41,12.18v57.8H474V267.68c0-3.46-1.67-5-4.61-5-2.69,0-5.51,1-9,3.46Z" transform="translate(-270.87 -253.45)"/><path class="cls-2" d="M295.9,260.59v12.73l-16.39,15.62,16.39,15.34v13l-25-23.52V284.4Z" transform="translate(-270.87 -253.45)"/><path class="cls-2" d="M521.17,284.4v9.36l-25,23.52v-13l16.39-15.34-16.39-15.62V260.59Z" transform="translate(-270.87 -253.45)"/></svg>