<?xml version="1.0" encoding="utf-8"?>
<!-- Generated by IcoMoon.io -->
<!DOCTYPE svg PUBLIC "-//W3C//DTD SVG 1.1//EN" "http://www.w3.org/Graphics/SVG/1.1/DTD/svg11.dtd">
<svg version="1.1" xmlns="http://www.w3.org/2000/svg" xmlns:xlink="http://www.w3.org/1999/xlink" width="18" height="18" viewBox="0 0 18 18">
<path fill="#373737" d="M5.344 10.688c0 2.019 1.637 3.656 3.656 3.656s3.656-1.637 3.656-3.656-1.637-3.656-3.656-3.656-3.656 1.637-3.656 3.656zM16.875 4.5h-3.938c-0.281-1.125-0.563-2.25-1.688-2.25h-4.5c-1.125 0-1.406 1.125-1.688 2.25h-3.938c-0.619 0-1.125 0.506-1.125 1.125v10.125c0 0.619 0.506 1.125 1.125 1.125h15.75c0.619 0 1.125-0.506 1.125-1.125v-10.125c0-0.619-0.506-1.125-1.125-1.125zM9 15.68c-2.757 0-4.992-2.235-4.992-4.992s2.235-4.992 4.992-4.992c2.757 0 4.992 2.235 4.992 4.992s-2.235 4.992-4.992 4.992zM16.875 7.875h-2.25v-1.125h2.25v1.125z"></path>
</svg>
