<svg xmlns="http://www.w3.org/2000/svg" width="23" height="37" viewBox="0 0 23 37">
  <defs>
    <style>
      .cls-1 {
        fill: #fff;
        fill-rule: evenodd;
      }
    </style>
  </defs>
  <path id="scroll.svg" class="cls-1" d="M961.5,929.757a1.659,1.659,0,1,0,1.657,1.659A1.66,1.66,0,0,0,961.5,929.757Zm-0.954-9.764A11.475,11.475,0,0,0,950,931.416V945.49a11.5,11.5,0,1,0,23,0V931.416a11.481,11.481,0,0,0-10.545-11.423m-0.954,35.1a9.607,9.607,0,0,1-9.591-9.6V931.416a9.591,9.591,0,1,1,19.182,0V945.49A9.607,9.607,0,0,1,961.5,955.091Z" transform="translate(-950 -920)"/>
</svg>
